<svg xmlns="http://www.w3.org/2000/svg" width="48" height="48" viewBox="0 0 48 48"><defs><clipPath id="ogqaa"><path fill="#fff" d="M47.925 23.997a23.766 23.766 0 0 1-5.415 15.194l4.792 4.8a2.4 2.4 0 0 1 .503 2.615A2.396 2.396 0 0 1 45.53 48H23.962C10.728 47.999.001 37.252.001 23.997 0 10.743 10.728 0 23.962 0c13.236 0 23.963 10.744 23.963 23.998z"/></clipPath></defs><g><g><path fill="#222" d="M47.925 23.997a23.766 23.766 0 0 1-5.415 15.194l4.792 4.8a2.4 2.4 0 0 1 .503 2.615A2.396 2.396 0 0 1 45.53 48H23.962C10.728 47.999.001 37.252.001 23.997 0 10.743 10.728 0 23.962 0c13.236 0 23.963 10.744 23.963 23.998z"/><path fill="none" stroke="#777" stroke-miterlimit="20" stroke-width="2" d="M47.925 23.997a23.766 23.766 0 0 1-5.415 15.194l4.792 4.8a2.4 2.4 0 0 1 .503 2.615A2.396 2.396 0 0 1 45.53 48H23.962C10.728 47.999.001 37.252.001 23.997 0 10.743 10.728 0 23.962 0c13.236 0 23.963 10.744 23.963 23.998z" clip-path="url(&quot;#ogqaa&quot;)"/></g></g></svg>